<svg width="100" height="100" xmlns="http://www.w3.org/2000/svg"><g transform="translate(12 12)" fill="none" fill-rule="evenodd"><path d="M67 72a5 5 0 0 1-3.54-1.46l-28-28a5.006 5.006 0 0 1 7.08-7.08l28 28A5 5 0 0 1 67 72z" fill="#F1A031"/><circle fill="#FFB652" cx="38" cy="38" r="24"/><circle fill="#CC8729" cx="38" cy="38" r="18"/><circle fill="#FFF" cx="38" cy="38" r="14"/><circle fill-opacity=".6" fill="#AAA" cx="12" cy="12" r="4"/><circle fill-opacity=".6" fill="#AAA" cx="30" cy="72" r="4"/><circle fill-opacity=".6" fill="#AAA" cx="72" cy="28" r="4"/><path d="M23.51 70.33a2 2 0 0 0-1-2.09A34 34 0 0 1 9 20.33a2 2 0 0 0-.62-2.71 2 2 0 0 0-2.82.65A38 38 0 0 0 20.62 71.8a2 2 0 0 0 2.89-1.47zM35.9 73.91a2 2 0 0 0 2 2.09h.1a37.74 37.74 0 0 0 18.4-4.76 2 2 0 0 0 .42-3.1 2 2 0 0 0-2.38-.31A33.75 33.75 0 0 1 38 72h-.09a2 2 0 0 0-2.01 1.91zM73.39 34.56a2 2 0 0 0-1.42 2v1.45a33.75 33.75 0 0 1-4.22 16.39 2 2 0 0 0 .31 2.38 2 2 0 0 0 3.1-.42A37.74 37.74 0 0 0 76 38v-1.68a2 2 0 0 0-2.5-1.78l-.11.02zM17.62 8.36a2 2 0 0 0 2.71.61 34 34 0 0 1 47 11.89 2 2 0 0 0 2.29.86 2 2 0 0 0 1.15-2.92A38 38 0 0 0 18.26 5.53a2 2 0 0 0-.64 2.82v.01z" fill-opacity=".3" fill="#AAA"/><path d="M38 40.38a2.37 2.37 0 0 1-2.33-2l-1.21-7.28a2.35 2.35 0 0 1 2.33-2.74h2.42a2.35 2.35 0 0 1 2.33 2.74l-1.21 7.3A2.37 2.37 0 0 1 38 40.38z" fill="silver"/><rect fill="silver" x="35.5" y="42.63" width="5" height="5" rx="2.5"/></g></svg>